<?xml version="1.0" standalone="no"?>
<!DOCTYPE svg PUBLIC "-//W3C//DTD SVG 20010904//EN"
 "http://www.w3.org/TR/2001/REC-SVG-20010904/DTD/svg10.dtd">
<svg version="1.0" xmlns="http://www.w3.org/2000/svg"
 width="700.000000pt" height="700.000000pt" viewBox="0 0 700.000000 700.000000"
 preserveAspectRatio="xMidYMid meet">
<metadata>
Created by potrace 1.14, written by Peter Selinger 2001-2017
</metadata>
<g transform="translate(0.000000,700.000000) scale(0.100000,-0.100000)"
fill="#000000" stroke="none">
<path d="M3338 6505 c-1 -2 -43 -6 -92 -10 -50 -3 -92 -8 -95 -10 -4 -1 -26
-6 -51 -9 -224 -31 -489 -114 -725 -227 -97 -46 -331 -181 -345 -199 -3 -3
-21 -17 -40 -30 -157 -107 -418 -358 -525 -505 -16 -22 -32 -42 -35 -45 -20
-15 -158 -234 -210 -332 -154 -294 -240 -566 -286 -907 -20 -151 -20 -479 1
-621 3 -19 7 -53 11 -75 8 -57 33 -183 45 -230 6 -22 12 -47 14 -55 2 -8 17
-59 34 -112 91 -281 227 -543 396 -763 47 -61 91 -119 100 -130 13 -18 12 -26
-1 -65 -64 -184 -51 -436 31 -616 63 -139 182 -282 296 -357 62 -40 171 -97
188 -97 13 0 12 2 16 -72 1 -31 6 -74 10 -95 5 -21 9 -45 11 -53 2 -8 21 -50
43 -95 67 -133 186 -238 329 -287 l67 -23 975 0 c927 0 978 1 1030 19 238 81
391 280 404 526 2 52 8 75 17 78 90 28 239 127 322 216 215 226 292 570 193
856 -12 36 -13 48 -3 61 7 9 46 61 87 115 95 124 152 212 221 339 98 181 201
440 234 594 3 11 7 29 9 39 14 61 35 175 41 217 3 28 8 64 10 80 13 90 16 146
15 300 0 94 -2 190 -5 215 -16 158 -19 178 -46 310 -57 276 -172 571 -315 807
-53 87 -182 270 -229 323 -221 252 -438 434 -690 580 -100 58 -268 140 -330
161 -22 7 -44 16 -50 20 -18 12 -203 69 -307 94 -91 22 -181 38 -338 60 -48 7
-426 16 -432 10z m337 -579 c75 -7 119 -12 169 -22 104 -19 142 -28 216 -51
735 -219 1275 -815 1416 -1562 22 -122 25 -148 29 -336 5 -263 -29 -474 -117
-715 -93 -257 -239 -493 -430 -695 -127 -136 -143 -166 -143 -275 0 -79 2 -89
33 -135 91 -141 108 -233 59 -338 -47 -103 -122 -152 -255 -168 -48 -6 -102
-18 -119 -26 -53 -25 -119 -89 -144 -140 -23 -48 -28 -113 -29 -364 l0 -47
-860 0 -860 0 0 57 c-1 247 -6 305 -32 356 -52 99 -136 152 -256 162 -168 14
-284 131 -284 287 0 68 15 113 62 181 65 94 76 214 30 305 -13 25 -59 83 -104
130 -146 152 -245 291 -353 495 -39 74 -122 287 -138 355 -47 199 -46 196 -64
335 -10 73 -7 377 4 455 63 455 257 853 569 1165 129 129 174 167 311 259 369
250 834 370 1290 332z"/>
<path d="M2480 4186 c-164 -47 -305 -171 -369 -325 -23 -55 -26 -67 -40 -154
-26 -156 31 -331 148 -459 158 -171 400 -228 628 -146 151 55 283 195 336 359
30 89 34 235 11 320 -56 201 -217 360 -417 412 -84 22 -207 19 -297 -7z"/>
<path d="M4215 4191 c-105 -30 -175 -71 -256 -151 -119 -117 -171 -246 -168
-414 2 -101 21 -175 69 -265 150 -280 520 -381 795 -216 329 198 375 652 92
915 -135 126 -357 180 -532 131z"/>
<path d="M3450 2770 c-118 -22 -170 -77 -276 -291 -98 -199 -107 -225 -102
-298 8 -106 65 -189 166 -238 56 -28 59 -28 252 -28 244 0 273 7 351 84 68 69
93 133 87 222 -4 50 -19 88 -95 243 -50 100 -105 199 -123 219 -57 65 -170
103 -260 87z"/>
</g>
</svg>
